<svg xmlns="http://www.w3.org/2000/svg" viewBox="0 0 98 96" role="img" aria-hidden="true">
  <path
    fill="#8ea5b2"
    d="M49 0C21.9 0 0 22.1 0 49.4c0 21.8 14 40.3 33.4 46.8 2.4.5 3.3-1 3.3-2.3 0-1.1 0-4.1-.1-8.1-13.6 3-16.5-5.9-16.5-5.9-2.2-5.8-5.5-7.3-5.5-7.3-4.5-3.1.3-3 .3-3 5 .4 7.7 5.2 7.7 5.2 4.4 7.7 11.6 5.5 14.4 4.2.4-3.3 1.7-5.5 3.1-6.8-10.9-1.3-22.4-5.6-22.4-24.8 0-5.5 1.9-10 5-13.5-.5-1.3-2.2-6.4.5-13.4 0 0 4.1-1.3 13.5 5.2a45.4 45.4 0 0 1 24.6 0c9.4-6.5 13.5-5.2 13.5-5.2 2.7 7 1 12.1.5 13.4 3.1 3.5 5 8 5 13.5 0 19.3-11.5 23.5-22.5 24.8 1.8 1.6 3.3 4.6 3.3 9.3 0 6.7-.1 12.1-.1 13.7 0 1.3.9 2.8 3.3 2.3C84 89.6 98 71.2 98 49.4 98 22.1 76.1 0 49 0Z"
  />
</svg>
